<?xml version="1.0" encoding="UTF-8"?>
<svg id="Layer_1" data-name="Layer 1" xmlns="http://www.w3.org/2000/svg" viewBox="0 0 1906.11 774.1">
  <defs>
    <style>
      .cls-1 {
        letter-spacing: -.02em;
      }

      .cls-2, .cls-3 {
        fill: gold;
      }

      .cls-4 {
        letter-spacing: 0em;
      }

      .cls-3 {
        font-family: Genica-One, Genica;
        font-size: 583.84px;
      }
    </style>
  </defs>
  <text class="cls-3" transform="translate(702.82 551.07)"><tspan class="cls-1" x="0" y="0">t</tspan><tspan class="cls-4" x="214.27" y="0">ask</tspan></text>
  <path class="cls-2" d="M162.31,492.85l143.67-248.85c3.84-6.65-.96-14.97-8.64-14.97H9.99c-7.68,0-12.48,8.31-8.64,14.97l143.67,248.85c3.84,6.65,13.44,6.65,17.28,0Z"/>
  <path class="cls-2" d="M499.63,15.03L215.1,507.84c-11.23,19.45,2.81,43.77,25.27,43.77h181.47c10.47,0,20.14-5.61,25.33-14.7L729.02,43.65C740.16,24.17,726.05-.05,703.62,0l-178.8,.44c-10.4,.03-20,5.58-25.2,14.59Z"/>
</svg>